<svg xmlns="http://www.w3.org/2000/svg" width="1200" height="630" viewBox="0 0 1200 630" font-family="'Mona Sans','Helvetica Neue',Arial,sans-serif">
	<rect width="1200" height="630" fill="#0f1115" />
	<!-- soft accent glow -->
	<defs>
		<radialGradient id="g" cx="18%" cy="16%" r="55%">
			<stop offset="0%" stop-color="#5457e5" stop-opacity="0.28" />
			<stop offset="100%" stop-color="#5457e5" stop-opacity="0" />
		</radialGradient>
	</defs>
	<rect width="1200" height="630" fill="url(#g)" />
	<!-- dotted grid -->
	<g fill="#ffffff" fill-opacity="0.05">
		<circle cx="0" cy="0" r="0" />
	</g>
	<!-- logo -->
	<g transform="translate(80,90)">
		<rect width="72" height="72" rx="16" fill="#5457e5" />
		<g transform="translate(20,20) scale(1.0)">
			<path d="M22 9.2C21.4 6.7 18.9 5.2 15.7 5.2C11.9 5.2 9 7 9 10.1C9 12.7 11.2 14 15.6 14.9C20.4 15.9 23 17.2 23 20.4C23 23.7 19.8 25.6 16 25.6C12.5 25.6 9.9 24.1 9 21.6" fill="none" stroke="#fff" stroke-width="3.4" stroke-linecap="round" />
		</g>
		<text x="96" y="50" font-size="34" font-weight="600" fill="#ffffff">Svelte <tspan fill="#8b8ef0">ARIA</tspan></text>
	</g>
	<!-- headline -->
	<text x="80" y="300" font-size="76" font-weight="700" fill="#ffffff" letter-spacing="-1.5">Accessible components,</text>
	<text x="80" y="386" font-size="76" font-weight="700" letter-spacing="-1.5" fill="#8b8ef0">in your own style.</text>
	<!-- sub -->
	<text x="80" y="466" font-size="32" fill="#a9adbb">Headless-first for Svelte 5. Keyboard, pointer &amp; focus done right.</text>
	<text x="80" y="510" font-size="32" fill="#a9adbb">Copy the source, own every line.</text>
	<!-- footer -->
	<text x="80" y="574" font-size="26" fill="#71768a">WAI-ARIA validated · runes + attachments · MIT</text>
</svg>
